<?xml version="1.0" encoding="utf-8"?>
<!-- Generator: Adobe Illustrator 19.2.0, SVG Export Plug-In . SVG Version: 6.00 Build 0)  -->
<svg version="1.2" baseProfile="tiny" id="Isolation_Mode"
	 xmlns="http://www.w3.org/2000/svg" xmlns:xlink="http://www.w3.org/1999/xlink" x="0px" y="0px" viewBox="0 0 841.9 595.3"
	 xml:space="preserve">
<path fill-rule="evenodd" fill="#2CBC59" d="M698.1,340.7l27.2-41.2c6,7.8,12.5,13.7,19.3,17.8c6.9,4.1,13.7,6.2,20.6,6.2
	c3,0,5.4-0.6,7.2-1.7c1.8-1.1,2.7-2.7,2.7-4.5c0-2.9-3.9-6-11.8-9.3c-1.7-0.7-3.1-1.3-4-1.7c-13-5.6-22.5-12-28.4-19.4
	c-5.9-7.3-8.9-16.2-8.9-26.6c0-16.4,5.8-29.8,17.3-40.2c11.5-10.4,26.7-15.5,45.3-15.5c10.8,0,20.8,1.7,29.9,5
	c9.1,3.3,17.4,8.2,25,14.8l-21.2,38.6c-6.2-5.6-11.8-9.8-16.8-12.5c-5-2.7-9.6-4.1-13.8-4.1c-2.6,0-4.6,0.6-6.2,1.9
	c-1.6,1.2-2.3,2.9-2.3,5c0,3.5,4.6,7.3,13.7,11.3c2.4,1.1,4.3,2,5.7,2.6c11.8,5.6,20.2,11.7,25.1,18.5c4.9,6.8,7.4,15.5,7.4,26
	c0,16.5-6.2,30.2-18.5,41.2c-12.4,11-27.9,16.5-46.7,16.5c-11.9,0-23.6-2.4-35.1-7.3C719.3,357.2,708.3,350.1,698.1,340.7
	L698.1,340.7z M617.6,213l2.5-5h60l6.8,53.8L617.6,213L617.6,213z M540.9,365.5h59.2l8.3-21h36.5l1.1,21h54l-10.8-85.9L611.6,225
	L540.9,365.5L540.9,365.5z M623.5,307.3h19.4l-0.6-16.9c-0.1-0.9-0.1-2.3-0.2-4c-0.3-7-0.5-12.7-0.5-17c0-2.9,0-5.1,0-6.6
	c0-1.5,0.1-3,0.2-4.4c-1.3,4.2-2.6,8.3-3.9,12.2c-1.3,4-2.5,7.4-3.7,10.5L623.5,307.3L623.5,307.3z M451.4,365.5L425.6,208h55
	l5.6,49.3c0.7,6.5,1.2,12.8,1.6,18.8c0.4,6.1,0.6,12,0.7,17.8c1.5-5.6,3.3-11.3,5.3-17c2-5.7,4.3-11.5,6.8-17.3l22.5-51.5h60.4
	l-82.9,157.5H451.4z"/>
<path fill-rule="evenodd" fill="#2CBC59" d="M336,365.5L364.1,208h55.8l-28,157.5H336L336,365.5z M154.8,365.5l28-157.5h55.7
	l17.5,50c0.2,0.8,0.7,2,1.2,3.7c3.9,10.9,6.6,20.3,8.1,28.3l14.6-81.9H335l-28.1,157.5h-55.6l-28.1-81.3c-0.3,7.4-1.8,19.4-4.7,36
	l-0.2,1.3l-7.8,44.1H154.8L154.8,365.5z M18.9,208L7,275.4c-1.7,9.9-2.9,17.6-3.6,23.1c-0.7,5.5-1,10.1-1,13.7
	c0,17.9,5.8,32,17.4,42.2c11.6,10.2,27.7,15.3,48.3,15.3c11.8,0,22.7-2.4,32.5-7.3c9.9-4.8,18-11.8,24.4-20.7
	c3.5-4.8,6.4-10.9,9-18.1c2.5-7.2,4.9-16.6,7-28l15.5-87.6h-55.5l-14,79.3c-2.5,14.1-4.9,22.8-7.3,26.3c-2.3,3.5-5.8,5.2-10.4,5.2
	c-3.7,0-6.5-1.1-8.4-3.3c-2-2.2-3-5.4-3-9.5c0-1.4,0.2-3.4,0.5-6.1c0.3-2.6,1.2-7.8,2.6-15.5L74.6,208H18.9z"/>
</svg>
